<svg xmlns="http://www.w3.org/2000/svg" xmlns:xlink="http://www.w3.org/1999/xlink" width="500" zoomAndPan="magnify" viewBox="0 0 375 374.999991" height="500" preserveAspectRatio="xMidYMid meet" version="1.0"><defs><g/></defs><rect x="-37.5" width="450" fill="#ffffff" y="-37.499999" height="449.999989" fill-opacity="1"/><rect x="-37.5" width="450" fill="#000000" y="-37.499999" height="449.999989" fill-opacity="1"/><g fill="#ffffff" fill-opacity="1"><g transform="translate(111.869379, 235.373376)"><g><path d="M -3.59375 24 C 0.238281 23.425781 3.375 22.226562 5.8125 20.40625 C 8.257812 18.582031 10.15625 15.421875 11.5 10.921875 C 12.84375 6.421875 13.515625 0.144531 13.515625 -7.90625 L 13.515625 -86.515625 C 13.515625 -90.160156 13.25 -92.796875 12.71875 -94.421875 C 12.1875 -96.046875 11.25 -97.144531 9.90625 -97.71875 C 8.570312 -98.300781 6.375 -98.6875 3.3125 -98.875 L 3.3125 -101.75 C 8.476562 -101.46875 16.476562 -101.328125 27.3125 -101.328125 C 38.519531 -101.328125 47.046875 -101.46875 52.890625 -101.75 L 52.890625 -98.875 C 49.828125 -98.6875 47.597656 -98.300781 46.203125 -97.71875 C 44.816406 -97.144531 43.882812 -96.046875 43.40625 -94.421875 C 42.925781 -92.796875 42.6875 -90.160156 42.6875 -86.515625 L 42.6875 -21.984375 C 42.6875 -16.429688 42.515625 -11.546875 42.171875 -7.328125 C 41.835938 -3.109375 41.191406 0.53125 40.234375 3.59375 C 37.941406 10.582031 33.101562 16.234375 25.71875 20.546875 C 18.34375 24.859375 8.570312 27.015625 -3.59375 27.015625 Z M -3.59375 24 "/></g></g></g><g fill="#ffffff" fill-opacity="1"><g transform="translate(201.507678, 235.373376)"><g><path d="M 43.40625 -41.109375 L 43.40625 -16.671875 C 43.40625 -12.648438 43.8125 -9.726562 44.625 -7.90625 C 45.4375 -6.082031 46.921875 -4.859375 49.078125 -4.234375 C 51.234375 -3.617188 54.660156 -3.3125 59.359375 -3.3125 L 59.359375 0 C 46.421875 -0.289062 36.550781 -0.4375 29.75 -0.4375 C 25.25 -0.4375 18.972656 -0.335938 10.921875 -0.140625 L 4.03125 0 L 4.03125 -2.875 C 7.09375 -3.0625 9.316406 -3.441406 10.703125 -4.015625 C 12.097656 -4.597656 13.035156 -5.703125 13.515625 -7.328125 C 13.992188 -8.953125 14.234375 -11.585938 14.234375 -15.234375 L 14.234375 -86.515625 C 14.234375 -90.160156 13.96875 -92.796875 13.4375 -94.421875 C 12.90625 -96.046875 11.96875 -97.144531 10.625 -97.71875 C 9.289062 -98.300781 7.09375 -98.6875 4.03125 -98.875 L 4.03125 -101.75 C 9.488281 -101.46875 17.726562 -101.328125 28.75 -101.328125 L 45.265625 -101.46875 C 47.179688 -101.5625 49.382812 -101.609375 51.875 -101.609375 C 66.0625 -101.609375 76.816406 -99.046875 84.140625 -93.921875 C 91.472656 -88.796875 95.140625 -81.921875 95.140625 -73.296875 C 95.140625 -68.023438 93.703125 -62.96875 90.828125 -58.125 C 87.953125 -53.289062 83.066406 -49.242188 76.171875 -45.984375 C 69.273438 -42.734375 60.125 -41.109375 48.71875 -41.109375 Z M 51.15625 -98.875 C 48.957031 -98.875 47.304688 -98.535156 46.203125 -97.859375 C 45.097656 -97.191406 44.351562 -95.992188 43.96875 -94.265625 C 43.59375 -92.546875 43.40625 -89.960938 43.40625 -86.515625 L 43.40625 -43.984375 L 47.28125 -43.984375 C 53.988281 -43.984375 58.609375 -46.472656 61.140625 -51.453125 C 63.679688 -56.429688 64.953125 -63.1875 64.953125 -71.71875 C 64.953125 -81.007812 63.898438 -87.859375 61.796875 -92.265625 C 59.691406 -96.671875 56.144531 -98.875 51.15625 -98.875 Z M 51.15625 -98.875 "/></g></g></g><path stroke-linecap="butt" transform="matrix(0, 0.75, -0.75, 0, 187.989059, 113.732541)" fill="none" stroke-linejoin="miter" d="M 0.00244489 1.501038 L 211.632667 1.501038 " stroke="#ffffff" stroke-width="3" stroke-opacity="1" stroke-miterlimit="4"/><path fill="#000000" d="M 81.164062 173.550781 L 291.566406 173.550781 L 291.566406 201.449219 L 81.164062 201.449219 L 81.164062 173.550781 " fill-opacity="1" fill-rule="nonzero"/><g fill="#ffffff" fill-opacity="1"><g transform="translate(90.337901, 193.499987)"><g><path d="M 3.265625 0.109375 C 2.566406 0.109375 1.925781 -0.0390625 1.34375 -0.34375 C 0.757812 -0.644531 0.28125 -1.070312 -0.09375 -1.625 L 0.671875 -2.484375 C 1.335938 -1.492188 2.207031 -1 3.28125 -1 C 4.769531 -1 5.515625 -1.882812 5.515625 -3.65625 L 5.515625 -10.96875 L 1.109375 -10.96875 L 1.109375 -12.078125 L 6.78125 -12.078125 L 6.78125 -3.703125 C 6.78125 -2.441406 6.484375 -1.488281 5.890625 -0.84375 C 5.296875 -0.207031 4.421875 0.109375 3.265625 0.109375 Z M 3.265625 0.109375 "/></g></g></g><g fill="#ffffff" fill-opacity="1"><g transform="translate(103.527608, 193.499987)"><g><path d="M 7.25 0.109375 C 6.050781 0.109375 4.960938 -0.15625 3.984375 -0.6875 C 3.015625 -1.226562 2.253906 -1.960938 1.703125 -2.890625 C 1.160156 -3.828125 0.890625 -4.875 0.890625 -6.03125 C 0.890625 -7.195312 1.160156 -8.242188 1.703125 -9.171875 C 2.253906 -10.109375 3.015625 -10.84375 3.984375 -11.375 C 4.960938 -11.90625 6.050781 -12.171875 7.25 -12.171875 C 8.4375 -12.171875 9.507812 -11.90625 10.46875 -11.375 C 11.4375 -10.851562 12.195312 -10.125 12.75 -9.1875 C 13.300781 -8.25 13.578125 -7.195312 13.578125 -6.03125 C 13.578125 -4.875 13.300781 -3.828125 12.75 -2.890625 C 12.195312 -1.953125 11.4375 -1.21875 10.46875 -0.6875 C 9.507812 -0.15625 8.4375 0.109375 7.25 0.109375 Z M 7.25 -1.03125 C 8.195312 -1.03125 9.054688 -1.242188 9.828125 -1.671875 C 10.597656 -2.109375 11.203125 -2.707031 11.640625 -3.46875 C 12.078125 -4.238281 12.296875 -5.09375 12.296875 -6.03125 C 12.296875 -6.976562 12.078125 -7.832031 11.640625 -8.59375 C 11.203125 -9.363281 10.597656 -9.960938 9.828125 -10.390625 C 9.054688 -10.828125 8.195312 -11.046875 7.25 -11.046875 C 6.289062 -11.046875 5.421875 -10.828125 4.640625 -10.390625 C 3.867188 -9.960938 3.257812 -9.363281 2.8125 -8.59375 C 2.375 -7.832031 2.15625 -6.976562 2.15625 -6.03125 C 2.15625 -5.09375 2.375 -4.238281 2.8125 -3.46875 C 3.257812 -2.707031 3.867188 -2.109375 4.640625 -1.671875 C 5.421875 -1.242188 6.289062 -1.03125 7.25 -1.03125 Z M 7.25 -1.03125 "/></g></g></g><g fill="#ffffff" fill-opacity="1"><g transform="translate(122.543822, 193.499987)"><g><path d="M 5.296875 0.109375 C 4.398438 0.109375 3.539062 -0.0351562 2.71875 -0.328125 C 1.894531 -0.617188 1.257812 -1 0.8125 -1.46875 L 1.3125 -2.453125 C 1.75 -2.015625 2.328125 -1.660156 3.046875 -1.390625 C 3.773438 -1.117188 4.523438 -0.984375 5.296875 -0.984375 C 6.378906 -0.984375 7.1875 -1.179688 7.71875 -1.578125 C 8.257812 -1.972656 8.53125 -2.488281 8.53125 -3.125 C 8.53125 -3.601562 8.382812 -3.984375 8.09375 -4.265625 C 7.800781 -4.554688 7.441406 -4.78125 7.015625 -4.9375 C 6.585938 -5.09375 6 -5.265625 5.25 -5.453125 C 4.332031 -5.679688 3.601562 -5.898438 3.0625 -6.109375 C 2.53125 -6.328125 2.070312 -6.65625 1.6875 -7.09375 C 1.300781 -7.53125 1.109375 -8.117188 1.109375 -8.859375 C 1.109375 -9.472656 1.265625 -10.03125 1.578125 -10.53125 C 1.898438 -11.03125 2.394531 -11.425781 3.0625 -11.71875 C 3.738281 -12.019531 4.566406 -12.171875 5.546875 -12.171875 C 6.242188 -12.171875 6.921875 -12.078125 7.578125 -11.890625 C 8.242188 -11.703125 8.816406 -11.441406 9.296875 -11.109375 L 8.859375 -10.09375 C 8.359375 -10.425781 7.816406 -10.675781 7.234375 -10.84375 C 6.660156 -11.007812 6.097656 -11.09375 5.546875 -11.09375 C 4.492188 -11.09375 3.695312 -10.882812 3.15625 -10.46875 C 2.625 -10.0625 2.359375 -9.539062 2.359375 -8.90625 C 2.359375 -8.414062 2.503906 -8.023438 2.796875 -7.734375 C 3.097656 -7.441406 3.46875 -7.21875 3.90625 -7.0625 C 4.351562 -6.90625 4.945312 -6.738281 5.6875 -6.5625 C 6.570312 -6.34375 7.285156 -6.125 7.828125 -5.90625 C 8.378906 -5.695312 8.84375 -5.375 9.21875 -4.9375 C 9.601562 -4.507812 9.796875 -3.925781 9.796875 -3.1875 C 9.796875 -2.582031 9.628906 -2.03125 9.296875 -1.53125 C 8.972656 -1.03125 8.472656 -0.628906 7.796875 -0.328125 C 7.117188 -0.0351562 6.285156 0.109375 5.296875 0.109375 Z M 5.296875 0.109375 "/></g></g></g><g fill="#ffffff" fill-opacity="1"><g transform="translate(137.698686, 193.499987)"><g><path d="M 12.0625 -12.078125 L 12.0625 0 L 10.796875 0 L 10.796875 -5.578125 L 3.25 -5.578125 L 3.25 0 L 1.96875 0 L 1.96875 -12.078125 L 3.25 -12.078125 L 3.25 -6.6875 L 10.796875 -6.6875 L 10.796875 -12.078125 Z M 12.0625 -12.078125 "/></g></g></g><g fill="#ffffff" fill-opacity="1"><g transform="translate(156.266704, 193.499987)"><g><path d="M 6.828125 0.109375 C 5.265625 0.109375 4.046875 -0.335938 3.171875 -1.234375 C 2.296875 -2.140625 1.859375 -3.445312 1.859375 -5.15625 L 1.859375 -12.078125 L 3.140625 -12.078125 L 3.140625 -5.203125 C 3.140625 -3.804688 3.453125 -2.757812 4.078125 -2.0625 C 4.710938 -1.375 5.628906 -1.03125 6.828125 -1.03125 C 8.035156 -1.03125 8.957031 -1.375 9.59375 -2.0625 C 10.226562 -2.757812 10.546875 -3.804688 10.546875 -5.203125 L 10.546875 -12.078125 L 11.78125 -12.078125 L 11.78125 -5.15625 C 11.78125 -3.445312 11.34375 -2.140625 10.46875 -1.234375 C 9.601562 -0.335938 8.390625 0.109375 6.828125 0.109375 Z M 6.828125 0.109375 "/></g></g></g><g fill="#ffffff" fill-opacity="1"><g transform="translate(174.472719, 193.499987)"><g><path d="M 9.546875 -3.21875 L 2.8125 -3.21875 L 1.359375 0 L 0.03125 0 L 5.546875 -12.078125 L 6.8125 -12.078125 L 12.328125 0 L 10.984375 0 Z M 9.078125 -4.265625 L 6.171875 -10.75 L 3.28125 -4.265625 Z M 9.078125 -4.265625 "/></g></g></g><g fill="#ffffff" fill-opacity="1"><g transform="translate(191.385873, 193.499987)"><g/></g></g><g fill="#ffffff" fill-opacity="1"><g transform="translate(200.455647, 193.499987)"><g><path d="M 6.484375 -12.078125 C 8.023438 -12.078125 9.234375 -11.707031 10.109375 -10.96875 C 10.984375 -10.226562 11.421875 -9.21875 11.421875 -7.9375 C 11.421875 -6.644531 10.984375 -5.632812 10.109375 -4.90625 C 9.234375 -4.175781 8.023438 -3.8125 6.484375 -3.8125 L 3.25 -3.8125 L 3.25 0 L 1.96875 0 L 1.96875 -12.078125 Z M 6.453125 -4.9375 C 7.648438 -4.9375 8.5625 -5.195312 9.1875 -5.71875 C 9.820312 -6.238281 10.140625 -6.976562 10.140625 -7.9375 C 10.140625 -8.914062 9.820312 -9.664062 9.1875 -10.1875 C 8.5625 -10.707031 7.648438 -10.96875 6.453125 -10.96875 L 3.25 -10.96875 L 3.25 -4.9375 Z M 6.453125 -4.9375 "/></g></g></g><g fill="#ffffff" fill-opacity="1"><g transform="translate(217.386036, 193.499987)"><g><path d="M 9.546875 -3.21875 L 2.8125 -3.21875 L 1.359375 0 L 0.03125 0 L 5.546875 -12.078125 L 6.8125 -12.078125 L 12.328125 0 L 10.984375 0 Z M 9.078125 -4.265625 L 6.171875 -10.75 L 3.28125 -4.265625 Z M 9.078125 -4.265625 "/></g></g></g><g fill="#ffffff" fill-opacity="1"><g transform="translate(234.299189, 193.499987)"><g><path d="M 1.96875 -12.078125 L 3.25 -12.078125 L 3.25 -1.109375 L 10 -1.109375 L 10 0 L 1.96875 0 Z M 1.96875 -12.078125 "/></g></g></g><g fill="#ffffff" fill-opacity="1"><g transform="translate(249.005853, 193.499987)"><g><path d="M 14.5 -12.078125 L 14.5 0 L 13.28125 0 L 13.28125 -9.65625 L 8.53125 -1.53125 L 7.9375 -1.53125 L 3.1875 -9.609375 L 3.1875 0 L 1.96875 0 L 1.96875 -12.078125 L 3.015625 -12.078125 L 8.265625 -3.125 L 13.453125 -12.078125 Z M 14.5 -12.078125 "/></g></g></g><g fill="#ffffff" fill-opacity="1"><g transform="translate(270.021702, 193.499987)"><g><path d="M 9.546875 -3.21875 L 2.8125 -3.21875 L 1.359375 0 L 0.03125 0 L 5.546875 -12.078125 L 6.8125 -12.078125 L 12.328125 0 L 10.984375 0 Z M 9.078125 -4.265625 L 6.171875 -10.75 L 3.28125 -4.265625 Z M 9.078125 -4.265625 "/></g></g></g></svg>